<?xml version="1.0" encoding="UTF-8"?>
<svg id="Layer_1" data-name="Layer 1" xmlns="http://www.w3.org/2000/svg" viewBox="0 0 1226.57 302.38">
  <defs>
    <style>
      .cls-1 {
        fill: #00e0bc;
      }

      .cls-2 {
        fill: #005c8f;
      }
    </style>
  </defs>
  <g>
    <rect class="cls-1" y="139.14" width="99.67" height="99.67" rx="5.46" ry="5.46"/>
    <path class="cls-1" d="M47.69,0h46.51c3.02,0,5.46,2.45,5.46,5.46v88.74c0,3.02-2.45,5.46-5.46,5.46H5.46c-3.02,0-5.46-2.45-5.46-5.46v-46.51C0,21.37,21.37,0,47.69,0Z"/>
    <rect class="cls-1" x="139.16" width="99.67" height="99.67" rx="5.46" ry="5.46"/>
    <path class="cls-1" d="M144.62,139.14h88.74c3.02,0,5.46,2.45,5.46,5.46v46.51c0,26.32-21.37,47.69-47.69,47.69h-46.51c-3.02,0-5.46-2.45-5.46-5.46v-88.74c0-3.02,2.45-5.46,5.46-5.46Z"/>
  </g>
  <path class="cls-2" d="M398.08,276.03v20.61c0,1.76-1.43,3.19-3.19,3.19l-102.56-.02c-1.76,0-3.19-1.42-3.19-3.18,0-7.53,0-16.71,0-19.27,0-1.04.5-2,1.36-2.58,25.12-17.23,67.92-48.06,73.75-62.96,4.37-11.15-3.04-22.92-13.98-26.34-13.47-4.31-28.11,4.14-33.75,16.99-.68,1.54-2.39,2.34-3.98,1.79l-18.96-6.57c-1.74-.6-2.61-2.54-1.91-4.24,4.96-12.02,13.86-22.29,24.8-28.5,26.25-15.6,62.75-4.15,72.93,24.79,8.64,25.26-4.45,44.27-22.93,60.32-8.76,8.16-18.14,15.62-27.72,22.79h56.16c1.76,0,3.19,1.43,3.19,3.19ZM431.16,136.13v-53.96c0-14.66,8.08-22.53,20.4-22.53s19.34,7.86,19.34,22.53v53.96c0,1.77,1.44,3.21,3.21,3.21h22.91c1.77,0,3.21-1.44,3.21-3.21v-60.55c0-27.2-15.94-42.93-37.62-42.93-15.51,0-25.5,7.65-31.45,18.28V3.21c0-1.77-1.44-3.21-3.21-3.21h-22.91c-1.77,0-3.21,1.44-3.21,3.21v132.92c0,1.77,1.44,3.21,3.21,3.21h22.91c1.77,0,3.21-1.44,3.21-3.21ZM1069.89,59.86c10.02,0,17.13,5.81,20.48,9.25,1.24,1.28,3.28,1.29,4.55.03,4.17-4.14,9.28-9.2,13.45-13.34,1.15-1.15,1.28-2.97.27-4.24-4.35-5.52-17.13-18.89-40.02-18.89-31.38,0-54.6,23.56-55.02,54.62.42,31.06,23.65,54.62,55.02,54.62,22.88,0,35.65-13.37,40.01-18.89,1.01-1.28.89-3.1-.27-4.25-4.17-4.14-9.26-9.19-13.43-13.32-1.27-1.26-3.32-1.25-4.56.05-3.31,3.46-10.31,9.22-20.48,9.22-16.83,0-27.53-12.28-28.01-27.24,0-.12,0-.24,0-.36.48-14.95,11.19-27.24,28.01-27.24ZM1000.14,38.4v97.76c0,1.76-1.43,3.19-3.19,3.19h-20.82c-1.72,0-3.12-1.36-3.19-3.07l-.43-11.59c-7.23,10.63-18.49,17.21-34,17.21-29.33,0-49.52-23.59-49.52-54.62s20.19-54.62,49.52-54.62c15.73,0,26.99,6.38,34,17.21l.43-11.59c.06-1.71,1.47-3.07,3.19-3.07h20.82c1.76,0,3.19,1.43,3.19,3.19ZM971.02,87.27c0-16.79-10.84-27.84-26.35-27.84s-26.99,11.26-26.99,27.84,11.48,27.84,26.99,27.84,26.35-11.05,26.35-27.84ZM289.13,136.12V3.22c0-1.78,1.44-3.22,3.22-3.22h44.81c35.28,0,52.28,19.77,52.28,48.24s-17,48.45-52.28,48.45h-14.42c-1.78,0-3.22,1.44-3.22,3.22v36.21c0,1.78-1.44,3.22-3.22,3.22h-23.95c-1.78,0-3.22-1.44-3.22-3.22ZM319.52,66.49c0,1.78,1.44,3.22,3.22,3.22h13.36c12.96,0,24.23-4.46,24.23-21.46s-11.26-21.25-24.23-21.25h-13.36c-1.78,0-3.22,1.44-3.22,3.22v36.28ZM527.7,160.49h-24.03c-1.76,0-3.19,1.43-3.19,3.19v81.39c0,15.65-12.17,28.98-27.81,29.54-16.42.58-29.92-12.56-29.92-28.85v-82.08c0-1.76-1.43-3.19-3.19-3.19h-24.03c-1.76,0-3.19,1.43-3.19,3.19v80.32c0,34.97,20.09,58.39,59.27,58.39s59.27-23.42,59.27-58.39v-80.32c0-1.76-1.43-3.19-3.19-3.19ZM1223.37,35.16h-23.41c-1.35,0-2.55.84-3.01,2.11l-24.77,68.04-24.94-68.05c-.46-1.26-1.66-2.1-3.01-2.1h-23.61c-2.27,0-3.82,2.29-2.97,4.39l38.06,94.95c.31.76.31,1.61,0,2.38l-1.38,3.46c-2.31,5.83-4.66,9.91-7.05,12.23-2.38,2.32-5.67,3.48-9.86,3.48-1.88,0-3.79-.13-5.75-.4-1.23-.17-2.64-.41-4.24-.74-1.69-.34-3.35.72-3.75,2.4l-3.79,15.94c-.4,1.67.59,3.34,2.23,3.83,2.82.83,5.67,1.45,8.57,1.84,3.9.53,7.88.8,11.93.8,6.94,0,12.68-1.23,17.24-3.68,4.55-2.45,8.6-6.36,12.14-11.73,3.54-5.37,7.19-12.43,10.95-21.18l43.36-103.53c.88-2.11-.67-4.44-2.95-4.44ZM704.85,35.64c-1.89-1.46-5.1-2.98-10.24-2.98-12.33,0-18.91,8.29-22.53,19.34l-.88-13.78c-.11-1.69-1.51-3.01-3.21-3.01h-22.03c-1.78,0-3.22,1.44-3.22,3.22v97.7c0,1.78,1.44,3.22,3.22,3.22h22.9c1.78,0,3.22-1.44,3.22-3.22v-52.04c0-14.88,7.65-24.44,22.1-24.44,2.99,0,5.63.46,7.85,1.1,2.03.58,4.05-.99,4.05-3.1v-19.46c0-1-.45-1.94-1.24-2.54ZM840.9,32.66c-16.15,0-26.35,7.86-32.09,18.49-5.74-12.11-16.15-18.49-29.54-18.49-14.24,0-23.59,7.23-29.33,17l-.66-11.42c-.1-1.7-1.51-3.03-3.21-3.03h-22.03c-1.78,0-3.22,1.44-3.22,3.22v97.7c0,1.78,1.44,3.22,3.22,3.22h22.9c1.78,0,3.22-1.44,3.22-3.22v-54.59c0-14.24,6.38-21.89,17.43-21.89s16.58,7.65,16.58,21.89v54.59c0,1.78,1.44,3.22,3.22,3.22h22.89c1.78,0,3.22-1.44,3.22-3.22v-54.59c0-14.24,6.38-21.89,17.43-21.89s16.58,7.65,16.58,21.89v54.59c0,1.78,1.44,3.22,3.22,3.22h22.89c1.78,0,3.22-1.44,3.22-3.22v-60.96c0-27.2-13.6-42.5-35.92-42.5ZM624.61,38.41v97.72c0,1.77-1.44,3.21-3.21,3.21h-20.79c-1.72,0-3.14-1.36-3.2-3.09l-.43-11.58c-7.23,10.63-18.49,17.21-34,17.21-29.33,0-49.52-23.59-49.52-54.62s20.19-54.62,49.52-54.62c15.73,0,26.99,6.38,34,17.21l.43-11.58c.06-1.72,1.48-3.09,3.2-3.09h20.79c1.77,0,3.21,1.44,3.21,3.21ZM595.5,87.27c0-16.79-10.84-27.84-26.35-27.84s-26.99,11.26-26.99,27.84,11.48,27.84,26.99,27.84,26.35-11.05,26.35-27.84Z"/>
</svg>